Coordinates
version=1
nRows=34
nColumns=34
inDegrees=no

Units are S.I. units (second, meters, Newtons, ...)
If the header above contains a line with 'inDegrees', this indicates whether rotational values are in degrees (yes) or radians (no).

endheader
time	pelvis_tilt	pelvis_list	pelvis_rotation	pelvis_tx	pelvis_ty	pelvis_tz	hip_flexion_r	hip_adduction_r	hip_rotation_r	knee_angle_r	ankle_angle_r	subtalar_angle_r	mtp_angle_r	hip_flexion_l	hip_adduction_l	hip_rotation_l	knee_angle_l	ankle_angle_l	subtalar_angle_l	mtp_angle_l	lumbar_extension	lumbar_bending	lumbar_rotation	arm_flex_r	arm_add_r	arm_rot_r	elbow_flex_r	pro_sup_r	arm_flex_l	arm_add_l	arm_rot_l	elbow_flex_l	pro_sup_l
0.89	-0.014277	0.0858921	-0.00550821	0.927987	0.96159	-0.20846	0.496386	-0.159556	-0.050213	1.04294	-0.0149731	-0.313062	-0.00986621	0.0872804	0.133732	-0.258526	0.238608	0.294892	0.307361	-0.00989823	-0.176341	-0.133466	-0.0979362	-0.0676344	-0.291727	0.381753	0.689635	1.90692	0.0760535	-0.298378	0.215966	0.719498	1.78637
0.9	-0.0163522	0.0785686	0.00400534	0.940022	0.961763	-0.209329	0.506559	-0.1536	-0.0620594	0.993309	0.000196313	-0.282353	-0.00986305	0.0680095	0.128129	-0.254676	0.2261	0.305305	0.326312	-0.00989502	-0.176674	-0.12316	-0.10895	-0.0834253	-0.288369	0.377787	0.662747	1.90901	0.0970101	-0.301738	0.220891	0.737778	1.78451
0.91	-0.0180762	0.0725182	0.0126827	0.952126	0.961668	-0.210083	0.514641	-0.148766	-0.0736064	0.939506	0.0148355	-0.249077	-0.00985989	0.0484329	0.12323	-0.252837	0.213673	0.315742	0.346467	-0.00989181	-0.176903	-0.114543	-0.118914	-0.0993999	-0.284386	0.371455	0.636539	1.909	0.117874	-0.304998	0.224894	0.755882	1.78273
0.92	-0.0193991	0.0677932	0.0204038	0.96431	0.961312	-0.210715	0.520593	-0.144987	-0.0850404	0.881793	0.0287532	-0.21362	-0.00985673	0.0284443	0.11918	-0.252838	0.201327	0.326134	0.367438	-0.00988859	-0.177122	-0.107686	-0.127764	-0.115489	-0.279816	0.362926	0.611163	1.90734	0.138572	-0.308157	0.228159	0.773712	1.78105
0.93	-0.0203357	0.0643712	0.0271396	0.976579	0.960702	-0.211224	0.524464	-0.142132	-0.0966704	0.820505	0.0418148	-0.176204	-0.00985357	0.00805716	0.11605	-0.254388	0.189149	0.336442	0.388749	-0.00988538	-0.177389	-0.102562	-0.135504	-0.131633	-0.274724	0.352383	0.586817	1.90457	0.159031	-0.311202	0.230838	0.791185	1.77961
0.94	-0.020949	0.062151	0.0329385	0.988932	0.959846	-0.211611	0.526379	-0.139996	-0.108883	0.756075	0.0539766	-0.136946	-0.00985041	-0.012592	0.113801	-0.257152	0.177353	0.346686	0.409925	-0.00988217	-0.177728	-0.0990505	-0.142198	-0.147771	-0.269204	0.340039	0.563725	1.9012	0.179177	-0.314109	0.233022	0.808246	1.77861
0.95	-0.0213295	0.0609537	0.0379111	1.00136	0.958749	-0.211878	0.526518	-0.138291	-0.122085	0.689055	0.0652955	-0.0959532	-0.00984726	-0.0332535	0.112265	-0.260814	0.166294	0.356953	0.430577	-0.00987896	-0.17814	-0.0969315	-0.147957	-0.163831	-0.263365	0.326166	0.54212	1.8976	0.198933	-0.316847	0.234729	0.824871	1.77829
0.96	-0.0215684	0.0605309	0.0422136	1.01387	0.957422	-0.212028	0.525103	-0.136658	-0.136641	0.620147	0.0759131	-0.0534456	-0.0098441	-0.0535875	0.111136	-0.265131	0.156467	0.367403	0.450463	-0.00987575	-0.17861	-0.0959029	-0.152935	-0.179727	-0.25733	0.311115	0.522217	1.89393	0.218211	-0.319381	0.235904	0.841072	1.77889
0.97	-0.0217381	0.0605727	0.0460302	1.02644	0.955874	-0.212061	0.522372	-0.134688	-0.152812	0.550235	0.086019	-0.00986815	-0.00984095	-0.0731996	0.10999	-0.269956	0.148471	0.378246	0.469502	-0.00987254	-0.179112	-0.0956032	-0.157307	-0.195354	-0.251226	0.295317	0.504197	1.89014	0.236913	-0.321677	0.236427	0.856902	1.78058
0.98	-0.0218954	0.060733	0.0495551	1.03908	0.954127	-0.211979	0.518583	-0.131979	-0.170701	0.480427	0.0958051	0.0340351	-0.00983779	-0.0916907	0.108334	-0.275221	0.142948	0.389702	0.487747	-0.00986934	-0.179622	-0.095644	-0.161261	-0.210598	-0.245182	0.279272	0.4882	1.88598	0.254921	-0.323705	0.236144	0.872445	1.78342
0.99	-0.0220726	0.0606754	0.0529764	1.05178	0.952209	-0.211783	0.514007	-0.128195	-0.190223	0.412092	0.105425	0.0772107	-0.00983464	-0.108708	0.105668	-0.280896	0.140502	0.401949	0.5053	-0.00986613	-0.180123	-0.0956438	-0.164979	-0.225346	-0.239319	0.26351	0.47432	1.88111	0.2721	-0.325436	0.234884	0.88781	1.78736
1	-0.0222692	0.060113	0.0564618	1.06455	0.950152	-0.21148	0.508944	-0.123134	-0.21111	0.346864	0.114965	0.118365	-0.00983148	-0.123996	0.101555	-0.286911	0.141612	0.41506	0.522201	-0.00986292	-0.180608	-0.095266	-0.168619	-0.239491	-0.233751	0.248543	0.462607	1.8752	0.288295	-0.326845	0.232496	0.903119	1.79224
1.01	-0.0224515	0.0588391	0.0601444	1.07741	0.947991	-0.211079	0.503722	-0.116783	-0.232938	0.2866	0.124425	0.156101	-0.00982833	-0.137433	0.0956983	-0.29308	0.146546	0.428945	0.53831	-0.00985972	-0.181078	-0.09425	-0.172304	-0.252947	-0.22858	0.23481	0.453075	1.86808	0.303329	-0.327903	0.228867	0.91849	1.79778
1.02	-0.0225556	0.0567449	0.0641099	1.09036	0.945763	-0.210592	0.498677	-0.109333	-0.25516	0.233254	0.133697	0.189091	-0.00982518	-0.149059	0.0879797	-0.299043	0.155313	0.443319	0.553222	-0.00985651	-0.181545	-0.0924302	-0.176106	-0.265643	-0.22389	0.22264	0.445692	1.85979	0.317014	-0.328579	0.223942	0.93403	1.80367
1.03	-0.0224958	0.0538181	0.0683866	1.10343	0.943509	-0.210041	0.494117	-0.101139	-0.277145	0.188681	0.142523	0.216211	-0.00982202	-0.159068	0.0784807	-0.304245	0.16765	0.457698	0.566239	-0.00985331	-0.182039	-0.0897353	-0.180043	-0.27752	-0.219751	0.212231	0.440376	1.8506	0.32915	-0.328837	0.217726	0.94982	1.80956
1.04	-0.0221766	0.0501278	0.0729427	1.11664	0.941265	-0.209447	0.490276	-0.0926449	-0.298179	0.15439	0.150454	0.23662	-0.00981887	-0.167774	0.0674581	-0.307988	0.183074	0.471426	0.576422	-0.0098501	-0.182595	-0.0861762	-0.184076	-0.288526	-0.216204	0.203648	0.436984	1.841	0.339536	-0.328639	0.210286	0.965919	1.8151
1.05	-0.021507	0.0457995	0.0776909	1.13	0.939068	-0.20883	0.487282	-0.0842924	-0.317475	0.131335	0.156824	0.249764	-0.00981572	-0.175555	0.0552964	-0.309517	0.200967	0.483731	0.582722	-0.0098469	-0.183249	-0.0818262	-0.188113	-0.298604	-0.213267	0.196853	0.435303	1.83155	0.347975	-0.327955	0.201743	0.982351	1.82001
1.06	-0.0204187	0.040987	0.0825004	1.14355	0.936941	-0.208204	0.485152	-0.0764303	-0.3342	0.119781	0.160781	0.255328	-0.00981257	-0.182766	0.0424402	-0.308148	0.220709	0.493787	0.584147	-0.00984369	-0.184029	-0.0767995	-0.192026	-0.30769	-0.210921	0.191734	0.435049	1.82281	0.354284	-0.326772	0.192267	0.999109	1.82403
1.07	-0.0188488	0.0358244	0.087217	1.1573	0.934948	-0.207567	0.483817	-0.069255	-0.34752	0.119268	0.161381	0.253182	-0.00980942	-0.189658	0.0293249	-0.303385	0.241804	0.500774	0.579928	-0.00984049	-0.184925	-0.0712366	-0.195663	-0.315707	-0.209121	0.188144	0.435874	1.81527	0.358308	-0.325099	0.182071	1.01615	1.82699
1.08	-0.0167967	0.0304342	0.0916812	1.17125	0.933124	-0.206915	0.483144	-0.062775	-0.356689	0.128693	0.157761	0.24334	-0.00980627	-0.19631	0.0163055	-0.295001	0.263999	0.503907	0.569638	-0.00983729	-0.185911	-0.0652662	-0.198862	-0.32256	-0.207793	0.185929	0.437387	1.80924	0.359936	-0.322968	0.1714	1.03339	1.82881
1.09	-0.0143069	0.024896	0.0957496	1.18541	0.931498	-0.206241	0.482977	-0.0568237	-0.361158	0.146476	0.149349	0.225983	-0.00980312	-0.202574	0.0036117	-0.283077	0.287358	0.502459	0.553259	-0.00983408	-0.186935	-0.0589913	-0.20147	-0.328138	-0.206846	0.184946	0.439185	1.80493	0.359114	-0.320435	0.160526	1.05068	1.82949
1.1	-0.0114641	0.0192367	0.0993114	1.19975	0.930098	-0.205531	0.483171	-0.0511043	-0.36069	0.170779	0.136072	0.201529	-0.00979997	-0.20806	-0.00867433	-0.267984	0.312285	0.495747	0.531176	-0.00983088	-0.18793	-0.0524744	-0.203352	-0.332319	-0.206189	0.185059	0.440902	1.80242	0.355862	-0.317566	0.149735	1.06785	1.82913
1.11	-0.00838463	0.0134316	0.102301	1.21425	0.928943	-0.20477	0.483602	-0.0452547	-0.355425	0.199728	0.118502	0.170719	-0.00979682	-0.212155	-0.0206111	-0.250328	0.339488	0.48313	0.504112	-0.00982768	-0.188824	-0.0457312	-0.204401	-0.334977	-0.205741	0.186132	0.442249	1.80169	0.350274	-0.31443	0.139316	1.08463	1.8279
1.12	-0.0052079	0.00741399	0.104701	1.22886	0.928049	-0.203948	0.484167	-0.0389164	-0.34589	0.23158	0.0978694	0.134678	-0.00979367	-0.21407	-0.0323648	-0.230853	0.369879	0.464007	0.473012	-0.00982448	-0.18955	-0.0387345	-0.204541	-0.335999	-0.205441	0.188008	0.443062	1.80266	0.342523	-0.311082	0.129546	1.10074	1.82607
1.13	-0.00209044	0.00109261	0.106543	1.24353	0.927428	-0.203058	0.48477	-0.0317908	-0.332936	0.264824	0.0759499	0.0948987	-0.00979052	-0.212922	-0.044158	-0.21034	0.404435	0.437842	0.438901	-0.00982127	-0.190039	-0.0314275	-0.20373	-0.335299	-0.205258	0.190489	0.443336	1.80519	0.332845	-0.307559	0.120681	1.11584	1.82395
1.14	0.000798887	-0.00562668	0.107902	1.2582	0.927085	-0.202099	0.485303	-0.0236789	-0.31764	0.2982	0.0548144	0.0531779	-0.00978737	-0.207822	-0.0562104	-0.189509	0.444031	0.404225	0.402741	-0.00981807	-0.190226	-0.023744	-0.201958	-0.332838	-0.205185	0.193323	0.443232	1.80907	0.321528	-0.303877	0.112941	1.12958	1.82185
1.15	0.00328416	-0.0128174	0.108886	1.2728	0.927023	-0.201079	0.485634	-0.0145027	-0.301189	0.330663	0.0365194	0.0114761	-0.00978422	-0.197977	-0.0686827	-0.168945	0.489279	0.362969	0.365324	-0.00981487	-0.190035	-0.0156327	-0.199247	-0.328634	-0.205239	0.196196	0.443071	1.81407	0.308892	-0.300028	0.106503	1.1416	1.82005
1.16	0.00519195	-0.0205099	0.109626	1.28729	0.927234	-0.20001	0.485592	-0.00431364	-0.284778	0.361334	0.0228034	-0.0282386	-0.00978107	-0.182785	-0.0816307	-0.149058	0.540397	0.314231	0.327203	-0.00981167	-0.189381	-0.00708254	-0.195649	-0.322771	-0.205451	0.198744	0.4433	1.81989	0.295271	-0.295991	0.101495	1.15158	1.81879
1.17	0.00636688	-0.0286721	0.110261	1.30161	0.927705	-0.198913	0.484975	0.00671173	-0.269525	0.389454	0.0148595	-0.0641559	-0.00977793	-0.161916	-0.0949764	-0.130083	0.597115	0.258641	0.288681	-0.00980847	-0.188177	0.00185695	-0.191241	-0.31539	-0.205857	0.200588	0.444436	1.82624	0.280997	-0.291741	0.0979973	1.15919	1.81819
1.18	0.00669149	-0.0371985	0.110927	1.31574	0.928415	-0.19781	0.48355	0.0182881	-0.256388	0.414372	0.0132223	-0.0947701	-0.00977478	-0.135375	-0.108499	-0.112097	0.658664	0.197403	0.249845	-0.00980527	-0.186358	0.0110632	-0.186115	-0.306678	-0.206492	0.20137	0.447001	1.83278	0.266387	-0.287257	0.0960412	1.16415	1.81832
1.19	0.00610854	-0.0459107	0.111734	1.32965	0.929342	-0.196726	0.481071	0.0300507	-0.2461	0.435569	0.01778	-0.118987	-0.00977163	-0.10352	-0.121846	-0.0950763	0.723808	0.13234	0.21063	-0.00980207	-0.183903	0.0203388	-0.180369	-0.29684	-0.207389	0.200812	0.451451	1.8392	0.251734	-0.282538	0.0956181	1.16621	1.81914
1.2	0.00463991	-0.054568	0.112752	1.34333	0.930467	-0.195682	0.477291	0.0415957	-0.239107	0.452685	0.0278825	-0.136184	-0.00976848	-0.067055	-0.134568	-0.0789494	0.790955	0.0658402	0.170912	-0.00979888	-0.180861	0.0294208	-0.17409	-0.286071	-0.208577	0.198768	0.458119	1.8452	0.237291	-0.277612	0.0966882	1.16516	1.82057
1.21	0.0023942	-0.062886	0.11399	1.35678	0.931772	-0.194695	0.471984	0.0525259	-0.23554	0.465555	0.0425088	-0.14622	-0.00976534	-0.0269628	-0.146163	-0.0636546	0.858295	0.000698159	0.130592	-0.00979568	-0.177362	0.0380008	-0.167342	-0.274531	-0.210084	0.195257	0.467177	1.85052	0.223271	-0.272545	0.0991915	1.16086	1.82252
1.22	-0.000442033	-0.0705594	0.115396	1.37001	0.933252	-0.193772	0.46496	0.0624922	-0.235209	0.474222	0.0604507	-0.149386	-0.00976219	0.0155873	-0.156131	-0.049183	0.923966	-0.0601461	0.0896781	-0.00979248	-0.173615	0.0457508	-0.160155	-0.26232	-0.211941	0.190473	0.47862	1.85493	0.209832	-0.267446	0.103058	1.15322	1.82486
